<?xml version="1.0" encoding="UTF-8"?><svg id="Layer_1" xmlns="http://www.w3.org/2000/svg" viewBox="0 0 754.7 179.7"><defs><style>.cls-1{fill-rule:evenodd;}.cls-1,.cls-2{fill:#acbac9;}.cls-3{fill:#fff;}</style></defs><path class="cls-1" d="M181.7,107.57c0,10.05-4.12,19.2-10.77,25.85-13.13,13.13-28.18,10.77-44.96,10.77,4.88,1.87,10.01,3.26,15.36,4.09v-.05s1.25.18,1.25.18h21.71c10.05,0,19.2-4.12,25.84-10.77,6.64-6.64,10.77-15.79,10.77-25.85,0-9.03-3.28-17.3-8.7-23.66-5.57-6.54-13.33-11.12-22.06-12.53l-10.64-1.71c5.22,2.26,9.83,5.72,13.5,10.03,5.42,6.36,8.7,14.63,8.7,23.66"/><path class="cls-2" d="M141.62,179.7h-73.72c-18.69,0-35.67-7.64-47.97-19.94C7.64,147.46,0,130.48,0,111.79c0-17.42,6.7-33.5,17.74-45.64,11-12.1,26.37-20.27,43.75-21.92l2.93,31.06c-9.31.89-17.6,5.32-23.58,11.89-5.94,6.53-9.55,15.2-9.55,24.6,0,10.05,4.12,19.2,10.77,25.85,6.64,6.64,15.79,10.77,25.84,10.77h73.72v31.3Z"/><path class="cls-3" d="M164.29,179.7h-22.67l-1.89-.12c-.97-.12-1.99-.26-3.03-.43l-.06-.06c-28.42-4.39-52.61-19.73-68.78-41.12-16.19-21.42-24.38-48.89-20.8-77.49.03-.21.14-.82.49-3.1l.12-.92c3.53-16.28,12.59-30.52,25.14-40.62C85.11,5.93,100.72,0,117.72,0s32.75,6.02,45.13,16.07c9.97,8.09,17.73,18.82,22.22,31.13,12.14,3.92,22.79,11.16,30.85,20.63,10.14,11.9,16.28,27.27,16.28,43.96,0,18.69-7.64,35.68-19.93,47.98-12.3,12.3-29.28,19.94-47.97,19.94M142.58,148.4h21.71c10.05,0,19.2-4.12,25.84-10.77,6.64-6.64,10.77-15.79,10.77-25.85,0-9.03-3.28-17.3-8.7-23.66-5.57-6.54-13.33-11.12-22.06-12.53l-10.64-1.71-2.2-10.51c-1.93-9.24-7.04-17.33-14.13-23.08-6.91-5.61-15.77-8.98-25.44-8.98s-18.46,3.32-25.35,8.87c-7,5.64-12.07,13.59-14.09,22.7-.03.25-.07.66-.16,1.4-2.54,20.29,3.24,39.73,14.68,54.87,11.45,15.15,28.52,26.02,48.54,29.13v-.05s1.25.18,1.25.18Z"/><path class="cls-3" d="M742.28,53.73v27.78c-2.95-5.19-11.19-8.04-16.48-8.04-14.66,0-25.54,8.95-25.54,26.25s11.09,26.25,25.85,26.25c6.11,0,12.31-2.03,16.18-8.04l.81,6.92h11.6V53.73h-12.42ZM726.91,85.07c7.84,0,14.55,5.9,14.55,14.66s-6.72,14.75-14.55,14.75-14.24-6-14.24-14.75,6.31-14.66,14.24-14.66ZM693.43,124.86v-26.36c0-15.77-9.47-24.63-21.27-24.63-6.31,0-11.4,2.54-16.49,7.53l-.81-6.82h-11.09v50.27h12.31v-25.64c0-7.63,5.19-14.05,12.82-14.05s12.11,5.8,12.11,13.44v26.25h12.42ZM594.42,93.92c1.83-6.51,7.33-9.77,14.04-9.77,7.13,0,12.21,3.26,13.03,9.77h-27.07ZM633.39,104.2c1.93-20.66-8.54-31.04-25.34-31.04s-26.66,10.99-26.66,26.25c0,16.08,10.28,26.76,27.58,26.76,7.63,0,16.28-2.64,21.58-8.14l-7.94-7.83c-2.85,2.95-8.85,4.68-13.43,4.68-8.75,0-14.14-4.48-14.96-10.68h39.18ZM520.44,53.73v71.13h11.6l.81-6.92c3.87,6.01,10.08,8.04,16.18,8.04,14.76,0,25.85-9.77,25.85-26.25,0-17.3-10.89-26.25-25.54-26.25-5.29,0-13.54,2.85-16.49,8.04v-27.78h-12.41ZM548.22,85.07c7.94,0,14.25,5.6,14.25,14.66s-6.31,14.75-14.25,14.75-14.55-5.7-14.55-14.75,6.71-14.66,14.55-14.66ZM502.73,53.52v32.05c-4.07-8.14-12.21-11.8-20.86-11.8-14.05,0-25.24,9.36-25.24,25.95s11.09,25.95,25.13,25.95c8.55,0,16.79-4.27,20.96-11.91v11.09h4.89V53.52h-4.89ZM482.07,78.56c11.6,0,20.56,8.55,20.56,21.07s-8.75,21.16-20.56,21.16-20.56-7.12-20.56-21.06,9.26-21.17,20.56-21.17ZM446.25,124.86v-50.37h-4.99v27.99c0,10.38-7.23,18.22-17.61,18.32-10.89.11-17.91-6-17.91-17.4v-28.9h-4.99v29c0,13.94,9.26,22.18,22.69,22.18,7.02-.1,14.05-2.95,17.91-9.87v9.06h4.89ZM363.83,120.68c-11.4,0-20.66-7.83-20.66-20.86s9.26-21.47,20.66-21.47,20.66,8.44,20.66,21.47-9.26,20.86-20.66,20.86ZM363.83,125.57c14.15,0,25.54-9.77,25.54-25.74s-11.4-26.15-25.54-26.15-25.54,10.17-25.54,26.15,11.4,25.74,25.54,25.74ZM321.7,53.52v71.33h4.99V53.52h-4.99ZM308.17,114.48c-4.07,4.07-9.57,6.21-14.96,6.21-11.4,0-20.96-7.43-20.96-20.96s9.56-20.97,20.96-20.97c5.39,0,10.99,1.93,15.06,6.01l3.26-3.15c-5.09-4.99-11.7-7.53-18.32-7.53-14.55,0-25.85,9.77-25.85,25.64s11.7,25.64,25.85,25.64c6.61,0,13.23-2.44,18.32-7.53l-3.36-3.36Z"/></svg>